<svg id="Layer_1" xmlns="http://www.w3.org/2000/svg" xmlns:xlink="http://www.w3.org/1999/xlink" viewBox="0 0 512 512" style="enable-background:new 0 0 512 512"><g><g><g><path d="M17.698 88.688l175.719 142.958c.583.479 1.219.896 1.885 1.229 2.344 1.198 4.823 1.802 7.385 1.802 2.708.0 5.417-.708 9.375-3.104L387.646 88.698c2.604-2.115 4.052-5.323 3.927-8.667s-1.813-6.438-4.563-8.354C379.813 66.656 371.385 64 362.667 64h-320c-8.719.0-17.135 2.646-24.333 7.667-2.75 1.906-4.438 5-4.563 8.354C13.646 83.365 15.094 86.573 17.698 88.688z"/><path d="M256 330.667C256 254.208 318.208 192 394.667 192c5.896.0 10.667-4.771 10.667-10.667V124.24c0-4.115-2.365-7.865-6.083-9.635-3.719-1.729-8.115-1.219-11.313 1.365L224.281 249.146l-1.875 1.24c-12.302 7.552-27.417 7.938-41.302-1.229L17.396 115.958c-3.177-2.594-7.573-3.115-11.313-1.365C2.365 116.365.0 120.115.0 124.229V320c0 23.531 19.135 42.667 42.667 42.667h204.365c3.094.0 6.031-1.344 8.063-3.677 2.021-2.333 2.938-5.438 2.5-8.5C256.51 342.906 256 336.604 256 330.667z"/><path d="M394.667 213.333c-64.698.0-117.333 52.635-117.333 117.333S329.969 448 394.667 448 512 395.365 512 330.667 459.365 213.333 394.667 213.333zM455.542 306.208l-74.667 74.667c-2.083 2.083-4.813 3.125-7.542 3.125-2.729.0-5.458-1.042-7.542-3.125l-32-32c-4.167-4.167-4.167-10.917.0-15.083 4.167-4.167 10.917-4.167 15.083.0l24.458 24.458 67.125-67.125c4.167-4.167 10.917-4.167 15.083.0S459.708 302.042 455.542 306.208z"/></g></g></g><g/><g/><g/><g/><g/><g/><g/><g/><g/><g/><g/><g/><g/><g/><g/></svg>