<svg xmlns="http://www.w3.org/2000/svg" xmlns:xlink="http://www.w3.org/1999/xlink"><defs><style>
    .sprite-symbol-usage {display: none;}
    .sprite-symbol-usage:target {display: inline;}
  </style><symbol viewBox="0 0 512.002 512.002" id="chip"><g><g><path d="M504.5 248.501H383.742v-17.064h32.581c4.142.0 7.5-3.358 7.5-7.5.0-4.142-3.358-7.5-7.5-7.5h-32.581v-17.065h22.62c8.427.0 16.35-3.281 22.308-9.24l49.326-49.326c3.214 1.601 6.777 2.453 10.473 2.453 6.286.0 12.195-2.448 16.64-6.892 4.445-4.445 6.893-10.354 6.893-16.64.0-6.286-2.448-12.195-6.893-16.64-4.444-4.445-10.354-6.893-16.64-6.893s-12.195 2.448-16.64 6.892c-4.445 4.445-6.893 10.354-6.893 16.64.0 3.696.852 7.259 2.453 10.473l-49.326 49.326c-3.125 3.125-7.281 4.847-11.702 4.847h-22.62v-16.548c0-21.816-17.749-39.564-39.564-39.564h-16.548V61.865c9.308-3.139 16.032-11.946 16.032-22.3.0-12.976-10.557-23.532-23.532-23.532-12.975.0-23.532 10.557-23.532 23.532.0 10.354 6.724 19.16 16.032 22.3v66.394h-17.064V95.678c0-4.142-3.358-7.5-7.5-7.5-4.142.0-7.5 3.358-7.5 7.5v32.581H263.5V7.501c0-4.142-3.358-7.5-7.5-7.5-4.142.0-7.5 3.358-7.5 7.5v120.758h-17.064V95.678c0-4.142-3.358-7.5-7.5-7.5-4.142.0-7.5 3.358-7.5 7.5v32.581h-17.064V105.64c0-8.427-3.282-16.35-9.241-22.308l-49.343-49.343c4.359-8.801 2.898-19.775-4.421-27.095-9.176-9.175-24.105-9.174-33.28.0-9.175 9.175-9.175 24.104.0 33.28 4.588 4.587 10.614 6.881 16.64 6.881 3.588.0 7.17-.833 10.455-2.46l49.343 49.344c3.126 3.125 4.847 7.281 4.847 11.701v22.619h-16.548c-3.345.0-6.672.42-9.888 1.247-4.011 1.032-6.426 5.121-5.394 9.133 1.032 4.012 5.122 6.427 9.133 5.394 1.995-.513 4.063-.774 6.148-.774h176.354c13.545.0 24.564 11.02 24.564 24.564v176.355c0 2.083-.26 4.15-.772 6.143-1.031 4.012 1.385 8.1 5.396 9.131.626.161 1.254.238 1.873.238 3.341.0 6.388-2.249 7.258-5.635.826-3.212 1.245-6.536 1.245-9.878v-16.548h66.394c3.139 9.308 11.946 16.032 22.3 16.032 12.976.0 23.532-10.556 23.532-23.532s-10.557-23.532-23.532-23.532c-10.354.0-19.16 6.724-22.3 16.032h-66.394v-17.065h32.581c4.142.0 7.5-3.358 7.5-7.5.0-4.142-3.358-7.5-7.5-7.5h-32.581v-17.063H504.5c4.142.0 7.5-3.358 7.5-7.5C512 251.859 508.642 248.501 504.5 248.501zM482.435 113.694c1.612-1.612 3.754-2.499 6.033-2.499s4.421.887 6.033 2.499 2.499 3.754 2.499 6.033-.887 4.421-2.499 6.033-3.754 2.499-6.033 2.499-4.421-.887-6.033-2.499-2.499-3.754-2.499-6.033S480.823 115.305 482.435 113.694zM125.759 29.568c-3.326 3.325-8.739 3.326-12.067-.001-3.327-3.327-3.327-8.74.0-12.066 1.664-1.664 3.848-2.495 6.034-2.495 2.185.0 4.37.832 6.033 2.495C129.086 20.828 129.086 26.241 125.759 29.568zm194.37 18.529c-4.704.0-8.532-3.828-8.532-8.532.0-4.704 3.827-8.532 8.532-8.532 4.705.0 8.532 3.828 8.532 8.532C328.661 44.269 324.833 48.097 320.129 48.097zM472.436 311.598c4.705.0 8.532 3.828 8.532 8.532.0 4.705-3.828 8.532-8.532 8.532-4.704.0-8.532-3.828-8.532-8.532C463.903 315.425 467.731 311.598 472.436 311.598z" /></g></g><g><g><path d="M408.914 471.829c-7.319-7.32-18.294-8.781-27.095-4.422l-49.343-49.344c-3.126-3.125-4.847-7.281-4.847-11.701v-22.619h16.548c3.345.0 6.671-.42 9.886-1.247 4.011-1.032 6.426-5.121 5.394-9.133-1.032-4.011-5.119-6.426-9.133-5.394-1.994.513-4.062.773-6.147.773H167.823c-13.545.0-24.564-11.02-24.564-24.564V167.824c0-2.085.26-4.153.773-6.146 1.033-4.011-1.382-8.1-5.393-9.133-4.012-1.033-8.101 1.382-9.133 5.393-.828 3.214-1.247 6.54-1.247 9.886v16.548H61.864c-3.139-9.308-11.946-16.032-22.3-16.032-12.976.0-23.532 10.556-23.532 23.532.0 12.976 10.557 23.532 23.532 23.532 10.354.0 19.16-6.724 22.3-16.032h66.394v17.065H95.677c-4.142.0-7.5 3.358-7.5 7.5.0 4.142 3.358 7.5 7.5 7.5h32.581v17.064H7.5c-4.142.0-7.5 3.358-7.5 7.5.0 4.142 3.358 7.5 7.5 7.5h120.758v17.064H95.677c-4.142.0-7.5 3.358-7.5 7.5.0 4.142 3.358 7.5 7.5 7.5h32.581v17.065h-22.62c-8.427.0-16.35 3.281-22.308 9.24l-49.326 49.326c-3.214-1.601-6.777-2.453-10.473-2.453-6.286.0-12.195 2.448-16.64 6.892C2.448 380.08.0 385.99.0 392.275s2.448 12.195 6.893 16.64c4.444 4.445 10.354 6.892 16.64 6.892 6.286.0 12.195-2.448 16.64-6.892 4.445-4.445 6.893-10.354 6.893-16.64.0-3.696-.852-7.259-2.453-10.473l49.326-49.326c3.125-3.125 7.281-4.847 11.702-4.847h22.62v16.548c0 21.816 17.749 39.564 39.564 39.564h16.548v66.394c-9.308 3.139-16.032 11.946-16.032 22.3.0 12.976 10.557 23.532 23.532 23.532s23.532-10.557 23.532-23.532c0-10.354-6.724-19.16-16.032-22.3v-66.394h17.064v32.581c0 4.142 3.358 7.5 7.5 7.5 4.142.0 7.5-3.358 7.5-7.5v-32.581H248.5v120.76c0 4.142 3.358 7.5 7.5 7.5 4.142.0 7.5-3.358 7.5-7.5V383.743h17.064v32.581c0 4.142 3.358 7.5 7.5 7.5 4.142.0 7.5-3.358 7.5-7.5v-32.581h17.064v22.619c0 8.427 3.282 16.35 9.241 22.308l49.343 49.343c-4.359 8.801-2.898 19.775 4.422 27.095 4.587 4.588 10.614 6.881 16.64 6.881s12.053-2.293 16.64-6.881C418.089 495.933 418.089 481.004 408.914 471.829zM39.564 200.404c-4.705.0-8.532-3.828-8.532-8.532.0-4.705 3.828-8.532 8.532-8.532 4.704.0 8.532 3.828 8.532 8.532C48.097 196.577 44.269 200.404 39.564 200.404zM29.565 398.308c-1.612 1.612-3.754 2.499-6.033 2.499s-4.421-.887-6.033-2.499S15 394.554 15 392.275s.887-4.421 2.499-6.033 3.754-2.499 6.033-2.499 4.421.887 6.033 2.499 2.499 3.754 2.499 6.033S31.177 396.697 29.565 398.308zM200.403 472.437c0 4.704-3.827 8.532-8.532 8.532-4.705.0-8.532-3.828-8.532-8.532.0-4.704 3.828-8.532 8.532-8.532C196.575 463.905 200.403 467.733 200.403 472.437zM398.308 494.502c-3.327 3.327-8.74 3.326-12.067.0-3.327-3.327-3.327-8.74.0-12.066 1.664-1.663 3.849-2.495 6.034-2.495s4.37.832 6.033 2.495C401.634 485.762 401.634 491.175 398.308 494.502z" /></g></g><g><g><path d="M335.645 235.962c0-16.04-11.732-29.627-27.793-34.042.475-1.961.739-3.978.739-6.039.0-15.186-13.479-27.541-30.045-27.541-8.974.0-17.035 3.629-22.545 9.365-5.51-5.736-13.572-9.365-22.545-9.365-16.567.0-30.045 12.355-30.045 27.541.0 2.061.264 4.078.739 6.039-16.061 4.414-27.793 18.001-27.793 34.042.0 7.839 2.774 15.235 7.899 21.343-5.011 6.487-7.899 14.362-7.899 22.746-.002 12.752 6.812 24.659 18.035 32.045.0.006.0.012.0.018.0 17.396 15.501 31.549 34.555 31.549 10.95.0 20.719-4.679 27.054-11.957 6.335 7.278 16.104 11.957 27.054 11.957 18.337.0 33.376-13.11 34.482-29.602 11.137-6.462 18.108-17.781 18.108-30.003.0-8.99-3.833-17.566-10.43-24.048C331.811 253.528 335.645 244.951 335.645 235.962zM309.101 266.642c7.227 3.814 11.541 10.325 11.541 17.416.0 5.287-2.457 10.33-6.607 14.101-3.943-7.301-10.912-13.113-19.717-15.879-3.95-1.241-8.161.956-9.403 4.907-1.242 3.952.956 8.162 4.907 9.403 7.646 2.403 12.784 8.642 12.784 15.525.0 9.125-8.772 16.549-19.555 16.549-10.782.0-19.554-7.424-19.554-16.549v-48.097c0-9.125 8.772-16.548 19.554-16.548 4.142.0 7.5-3.358 7.5-7.5.0-4.142-3.358-7.5-7.5-7.5-7.254.0-13.99 2.056-19.554 5.557v-9.58c0-4.142-3.358-7.5-7.5-7.5-4.142.0-7.5 3.358-7.5 7.5v41.637c-2.524-1.584-5.292-2.895-8.286-3.836-3.954-1.242-8.162.956-9.403 4.906-1.242 3.952.955 8.162 4.906 9.404 7.646 2.403 12.783 8.642 12.783 15.524v16.032c0 9.125-8.772 16.549-19.554 16.549-10.783.0-19.555-7.424-19.555-16.549.0-3.911 1.658-7.713 4.668-10.705 2.938-2.92 2.952-7.669.032-10.607-2.92-2.938-7.668-2.952-10.606-.032-1.797 1.787-3.344 3.739-4.63 5.814-4.736-4.48-7.501-10.374-7.501-16.535.0-11.112 8.721-20.874 21.208-23.739 4.037-.926 6.559-4.95 5.633-8.987-.926-4.038-4.951-6.559-8.987-5.633-5.027 1.153-9.655 3.078-13.759 5.605-2.661-3.342-4.094-7.256-4.094-11.335.003-11.281 10.697-20.465 23.88-20.552.067.002.134.011.2.011 1.712.0 3.433-.583 4.842-1.776 2.875-2.434 3.452-6.564 1.522-9.671-.057-.092-.109-.186-.169-.275-.031-.045-.068-.088-.1-.133-.116-.163-.235-.323-.364-.477-.004-.005-.007-.01-.011-.014-1.251-1.479-2.744-3.927-2.744-7.193.0-6.915 6.75-12.541 15.045-12.541 8.295.0 15.045 5.626 15.045 12.541.0 4.142 3.358 7.5 7.5 7.5 4.142.0 7.5-3.358 7.5-7.5.0-6.915 6.75-12.541 15.045-12.541 8.295.0 15.045 5.626 15.045 12.541.0 1.848-.484 3.424-1.125 4.72-4.266.403-8.392 1.434-12.309 3.086-3.817 1.609-5.606 6.008-3.997 9.825 1.609 3.816 6.008 5.607 9.825 3.997 3.242-1.367 6.73-2.07 10.368-2.098.072.002.143.009.215.009.067.0.133-.009.2-.011 13.183.086 23.877 9.271 23.877 20.552.0 7.091-4.314 13.601-11.541 17.416-2.46 1.298-4 3.851-4 6.633C305.101 262.791 306.641 265.344 309.101 266.642z" /></g></g><g></g><g></g><g></g><g></g><g></g><g></g><g></g><g></g><g></g><g></g><g></g><g></g><g></g><g></g><g></g></symbol><symbol viewBox="-32 0 496 496.00935" id="creativity"><path d="m137.972656 98.679688c-15.128906 5.714843-25.96875 20.226562-25.96875 37.328124 0 6.585938 1.753906 12.714844 4.585938 18.203126-12 4.613281-20.585938 16.183593-20.585938 29.796874 0 13.617188 8.585938 25.183594 20.585938 29.800782-2.832032 5.488281-4.585938 11.617187-4.585938 18.199218 0 17.105469 10.839844 31.617188 25.96875 37.328126-1.199218 3.351562-1.96875 6.914062-1.96875 10.671874 0 17.648438 14.351563 32 32 32 3.984375 0 7.761719-.824218 11.28125-2.152343 5.183594 10.699219 16.054688 18.152343 28.71875 18.152343 17.648438 0 32-14.351562 32-32v-224c0-17.644531-14.351562-32-32-32-12.664062 0-23.535156 7.457032-28.71875 18.152344-3.519531-1.328125-7.296875-2.152344-11.28125-2.152344-17.648437 0-32 14.355469-32 32 0 3.761719.769532 7.320313 1.96875 10.671876zm30.03125-26.671876c8.824219 0 16 7.175782 16 16h16c0-7.6875-2.839844-14.664062-7.375-20.183593 1.855469-6.78125 8.007813-11.816407 15.375-11.816407 8.824219 0 16 7.175782 16 16v224c0 8.824219-7.175781 16-16 16-7.367187 0-13.519531-5.03125-15.375-11.816406 4.535156-5.519531 7.375-12.492187 7.375-20.183594h-16c0 8.824219-7.175781 16-16 16-8.824218 0-16-7.175781-16-16 0-8.824218 7.175782-16 16-16v-16c-7.792968 0-14.847656 2.914063-20.398437 7.554688-11.136719-2.074219-19.601563-11.824219-19.601563-23.554688 0-13.230468 10.769532-24 24-24 13.234375 0 24 10.769532 24 24h16c0-22.054687-17.941406-40-40-40-9.039062 0-17.296875 3.128907-24 8.210938v-.210938c-8.824218 0-16-7.175781-16-16 0-8.824218 7.175782-16 16-16v-.207031c6.703125 5.082031 14.960938 8.207031 24 8.207031 22.058594 0 40-17.941406 40-40h-16c0 13.234376-10.765625 24-24 24-13.230468 0-24-10.765624-24-24 0-11.726562 8.464844-21.476562 19.601563-23.550781 5.550781 4.640625 12.605469 7.550781 20.398437 7.550781v-16c-8.824218 0-16-7.175781-16-16 0-8.824218 7.175782-16 16-16zm0 0" /><path d="m328.003906 56.007812c-3.984375 0-7.757812.824219-11.277344 2.152344-5.1875-10.695312-16.058593-18.152344-28.722656-18.152344-17.648437 0-32 14.355469-32 32v224c0 17.648438 14.351563 32 32 32 12.664063 0 23.535156-7.453124 28.722656-18.152343 3.519532 1.328125 7.292969 2.152343 11.277344 2.152343 17.648438 0 32-14.351562 32-32 0-3.757812-.765625-7.320312-1.96875-10.671874 15.128906-5.710938 25.96875-20.222657 25.96875-37.328126 0-6.582031-1.75-12.710937-4.582031-18.199218 12-4.617188 20.582031-16.183594 20.582031-29.800782 0-13.613281-8.582031-25.183593-20.582031-29.796874 2.832031-5.488282 4.582031-11.617188 4.582031-18.203126 0-17.101562-10.839844-31.613281-25.96875-37.328124 1.203125-3.351563 1.96875-6.910157 1.96875-10.671876 0-17.644531-14.351562-32-32-32zm40 80c0 13.234376-10.765625 24-24 24-13.230468 0-24-10.765624-24-24h-16c0 22.058594 17.945313 40 40 40 9.039063 0 17.296875-3.125 24-8.207031v.207031c8.824219 0 16 7.175782 16 16 0 8.824219-7.175781 16-16 16v.210938c-6.703125-5.082031-14.960937-8.210938-24-8.210938-22.054687 0-40 17.945313-40 40h16c0-13.230468 10.769532-24 24-24 13.234375 0 24 10.769532 24 24 0 11.730469-8.464844 21.480469-19.597656 23.554688-5.554688-4.640625-12.609375-7.554688-20.402344-7.554688v16c8.824219 0 16 7.175782 16 16 0 8.824219-7.175781 16-16 16-8.824218 0-16-7.175781-16-16h-16c0 7.691407 2.839844 14.664063 7.375 20.183594-1.855468 6.785156-8.007812 11.816406-15.375 11.816406-8.824218 0-16-7.175781-16-16v-224c0-8.824218 7.175782-16 16-16 7.367188 0 13.519532 5.035157 15.375 11.816407-4.535156 5.519531-7.375 12.496093-7.375 20.183593h16c0-8.824218 7.175782-16 16-16 8.824219 0 16 7.175782 16 16 0 8.824219-7.175781 16-16 16v16c7.792969 0 14.847656-2.910156 20.402344-7.550781 11.132812 2.074219 19.597656 11.824219 19.597656 23.550781zm0 0" /><path d="m373.980469 49.898438c-37.382813-35.136719-86.34375-52.753907-137.726563-49.519532l.992188 15.964844c46.949218-2.917969 91.636718 13.136719 125.78125 45.210938 34.160156 32.101562 52.976562 75.597656 52.976562 122.453124 0 56.464844-28.144531 108.824219-75.289062 140.066407-16.261719 10.78125-28.566406 26.160156-36.148438 43.933593h-113.457031c-7.6875-17.902343-20.039063-33.390624-36.328125-44.269531-48.585938-32.472656-76.503906-86.703125-74.6875-145.089843l-15.992188-.496094c-1.992187 63.9375 28.589844 123.335937 81.792969 158.882812 11.75 7.855469 21.132813 18.550782 27.671875 30.972656h-21.5625v16h27.945313c1.550781 5.183594 2.792969 10.496094 3.421875 16h-15.367188v16h16v24c0 4.425782 3.585938 8 8 8h8c0 26.472657 21.527344 48 48 48s48-21.527343 48-48h8c4.417969 0 8-3.574218 8-8v-24h16v-16h-15.4375c.566406-5.496093 1.695313-10.824218 3.214844-16h28.222656v-16h-21.910156c6.445312-12.285156 15.773438-22.847656 27.464844-30.589843 51.621094-34.234375 82.445312-91.578125 82.445312-153.410157 0-50.574218-21.152344-99.460937-58.023437-134.109374zm-125.976563 430.109374c-17.648437 0-32-14.351562-32-32h64c0 17.648438-14.351562 32-32 32zm48-48h-96v-16h96zm.570313-32h-97.210938c-.535156-5.445312-1.398437-10.796874-2.710937-16h102.410156c-1.273438 5.195313-2.011719 10.570313-2.488281 16zm0 0" /><path d="m56.003906 56.007812c17.648438 0 32 14.355469 32 32 0 4.425782 3.585938 8 8 8 4.417969 0 8-3.574218 8-8 0-17.644531 14.351563-32 32-32 4.417969 0 8-3.574218 8-8 0-4.421874-3.582031-8-8-8-17.648437 0-32-14.351562-32-32 0-4.421874-3.582031-7.9999995-8-7.9999995-4.414062 0-8 3.5781255-8 7.9999995 0 17.648438-14.351562 32-32 32-4.414062 0-8 3.578126-8 8 0 4.425782 3.585938 8 8 8zm40-21.496093c3.554688 5.34375 8.152344 9.945312 13.496094 13.496093-5.34375 3.554688-9.941406 8.152344-13.496094 13.496094-3.550781-5.34375-8.152344-9.941406-13.496094-13.496094 5.34375-3.550781 9.945313-8.152343 13.496094-13.496093zm0 0" /><path d="m88.003906 136.007812c4.417969 0 8-3.574218 8-8 0-4.421874-3.582031-8-8-8-17.648437 0-32-14.351562-32-32 0-4.421874-3.582031-8-8-8-4.414062 0-8 3.578126-8 8 0 17.648438-14.351562 32-32 32-4.414062 0-7.99999975 3.578126-7.99999975 8 0 4.425782 3.58593775 8 7.99999975 8 17.648438 0 32 14.355469 32 32 0 4.425782 3.585938 8 8 8 4.417969 0 8-3.574218 8-8 0-17.644531 14.351563-32 32-32zm-40 5.496094c-3.550781-5.34375-8.152344-9.941406-13.496094-13.496094 5.34375-3.550781 9.9375-8.152343 13.496094-13.496093 3.554688 5.34375 8.152344 9.9375 13.496094 13.496093-5.34375 3.554688-9.941406 8.152344-13.496094 13.496094zm0 0" /></symbol><symbol viewBox="0 0 512 512" id="email"><g><g><g><path d="M17.698 88.688l175.719 142.958c.583.479 1.219.896 1.885 1.229 2.344 1.198 4.823 1.802 7.385 1.802 2.708.0 5.417-.708 9.375-3.104L387.646 88.698c2.604-2.115 4.052-5.323 3.927-8.667s-1.813-6.438-4.563-8.354C379.813 66.656 371.385 64 362.667 64h-320c-8.719.0-17.135 2.646-24.333 7.667-2.75 1.906-4.438 5-4.563 8.354C13.646 83.365 15.094 86.573 17.698 88.688z" /><path d="M256 330.667C256 254.208 318.208 192 394.667 192c5.896.0 10.667-4.771 10.667-10.667V124.24c0-4.115-2.365-7.865-6.083-9.635-3.719-1.729-8.115-1.219-11.313 1.365L224.281 249.146l-1.875 1.24c-12.302 7.552-27.417 7.938-41.302-1.229L17.396 115.958c-3.177-2.594-7.573-3.115-11.313-1.365C2.365 116.365.0 120.115.0 124.229V320c0 23.531 19.135 42.667 42.667 42.667h204.365c3.094.0 6.031-1.344 8.063-3.677 2.021-2.333 2.938-5.438 2.5-8.5C256.51 342.906 256 336.604 256 330.667z" /><path d="M394.667 213.333c-64.698.0-117.333 52.635-117.333 117.333S329.969 448 394.667 448 512 395.365 512 330.667 459.365 213.333 394.667 213.333zM455.542 306.208l-74.667 74.667c-2.083 2.083-4.813 3.125-7.542 3.125-2.729.0-5.458-1.042-7.542-3.125l-32-32c-4.167-4.167-4.167-10.917.0-15.083 4.167-4.167 10.917-4.167 15.083.0l24.458 24.458 67.125-67.125c4.167-4.167 10.917-4.167 15.083.0S459.708 302.042 455.542 306.208z" /></g></g></g><g></g><g></g><g></g><g></g><g></g><g></g><g></g><g></g><g></g><g></g><g></g><g></g><g></g><g></g><g></g></symbol><symbol viewBox="0 0 24 24" id="facebook"><path d="m15.997 3.985h2.191v-3.816c-.378-.052-1.678-.169-3.192-.169-3.159 0-5.323 1.987-5.323 5.639v3.361h-3.486v4.266h3.486v10.734h4.274v-10.733h3.345l.531-4.266h-3.877v-2.939c.001-1.233.333-2.077 2.051-2.077z" /></symbol><symbol viewBox="0 0 480 480" id="idea">
<g>
	<g>
		<path d="M337.678,202.48c-1.522-1.596-3.635-2.494-5.84-2.48h-49.44c-4.411-0.25-8.19,3.123-8.44,7.535
			c-0.06,1.054,0.09,2.109,0.44,3.105c0.807,1.682,1.295,3.5,1.44,5.36c0,8.837-7.163,16-16,16s-16-7.163-16-16
			c0.019-1.835,0.371-3.651,1.04-5.36c1.465-4.168-0.726-8.735-4.895-10.2c-0.996-0.35-2.051-0.5-3.105-0.44h-49.04v-46.24
			c-0.01-4.418-3.601-7.992-8.019-7.981c-1.974,0.005-3.876,0.739-5.341,2.061c-6.539,5.943-16.658,5.46-22.602-1.079
			s-5.46-16.658,1.079-22.602c2.976-2.705,6.861-4.19,10.882-4.159c3.938,0.03,7.726,1.511,10.64,4.16
			c3.28,2.96,8.339,2.701,11.299-0.579c1.322-1.465,2.056-3.367,2.061-5.341V48c0-4.418-3.582-8-8-8
			C91.472,40.18,19.983,111.959,20.163,200.325c0.122,60.176,33.998,115.194,87.675,142.395v58.72
			c-9.566,3.382-15.971,12.414-16,22.56c0.035,5.92,2.258,11.619,6.24,16c-3.982,4.381-6.205,10.08-6.24,16
			c0,13.255,10.745,24,24,24h128c13.255,0,24-10.745,24-24c-0.035-5.92-2.258-11.619-6.24-16c3.982-4.381,6.205-10.08,6.24-16
			c-0.029-10.146-6.434-19.178-16-22.56v-58.72c51.396-25.643,85.017-76.96,88-134.32
			C339.958,206.214,339.177,204.075,337.678,202.48z M243.837,464h-128c-4.418,0-8-3.582-8-8s3.582-8,8-8h128c4.418,0,8,3.582,8,8
			S248.256,464,243.837,464z M243.837,432h-128c-4.418,0-8-3.582-8-8s3.582-8,8-8h128c4.418,0,8,3.582,8,8S248.256,432,243.837,432z
			 M155.837,280h-8c-4.418,0-8-3.582-8-8s3.582-8,8-8s8,3.582,8,8V280z M171.837,400V296h16v104H171.837z M240.478,330.48
			c-2.836,1.312-4.648,4.155-4.64,7.28V400h-32V296h8c13.255,0,24-10.745,24-24s-10.745-24-24-24s-24,10.745-24,24v8h-16v-8
			c0-13.255-10.745-24-24-24s-24,10.745-24,24s10.745,24,24,24h8v104h-32v-62.24c0.008-3.125-1.804-5.968-4.64-7.28
			C47.018,297.089,15.574,211.507,48.965,139.327C71.345,90.952,118.615,58.895,171.837,56v48.8c-2.618-0.628-5.309-0.897-8-0.8
			c-17.673,0-32,14.327-32,32s14.327,32,32,32c2.702,0.019,5.393-0.331,8-1.04V208c0,4.418,3.582,8,8,8h48c0,17.673,14.327,32,32,32
			c17.673,0,32-14.327,32-32h31.04C317.351,265.956,286.095,309.381,240.478,330.48z M203.837,280v-8c0-4.418,3.582-8,8-8
			s8,3.582,8,8s-3.582,8-8,8H203.837z" />
	</g>
</g>
<g>
	<g>
		<path d="M299.837,0c-4.418,0-8,3.582-8,8v57.04c-2.607-0.709-5.298-1.059-8-1.04c-17.673,0-32,14.327-32,32s14.327,32,32,32
			c2.702,0.019,5.393-0.331,8-1.04V168c0,4.418,3.582,8,8,8h48c0,17.673,14.327,32,32,32c17.673,0,32-14.327,32-32h40
			c4.255-0.372,7.628-3.745,8-8c0-2.56,0-5.12,0-8C459.837,71.634,388.203,0,299.837,0z M402.637,160
			c-4.411-0.25-8.19,3.123-8.44,7.535c-0.06,1.054,0.09,2.109,0.44,3.105c0.724,1.698,1.131,3.515,1.2,5.36c0,8.837-7.163,16-16,16
			s-16-7.163-16-16c0.019-1.835,0.371-3.651,1.04-5.36c1.465-4.168-0.726-8.735-4.895-10.2c-0.996-0.35-2.051-0.5-3.105-0.44h-49.04
			v-46.24c-0.01-4.418-3.601-7.992-8.019-7.981c-1.974,0.005-3.876,0.739-5.341,2.061c-6.627,5.845-16.738,5.21-22.583-1.417
			c-5.845-6.627-5.21-16.738,1.417-22.583c6.047-5.333,15.119-5.333,21.166,0c3.277,2.964,8.336,2.711,11.3-0.566
			c1.254-1.386,1.983-3.167,2.06-5.034V16c76.389,4.25,136.118,67.493,136,144H402.637z" />
	</g>
</g>
<g>
</g>
<g>
</g>
<g>
</g>
<g>
</g>
<g>
</g>
<g>
</g>
<g>
</g>
<g>
</g>
<g>
</g>
<g>
</g>
<g>
</g>
<g>
</g>
<g>
</g>
<g>
</g>
<g>
</g>
</symbol><symbol viewBox="0 0 30.055 30.056" id="incoming-call"><g><g><path d="M25.839 25.996l-3.5-4.338c-.292-.36-.908-.648-1.371-.642l-1.478.028c-1.267.729-3.747 1.804-7.177-4.139-3.43-5.941-1.26-7.552.006-8.283l.762-1.266c.239-.398.297-1.076.131-1.509l-2.006-5.2c-.167-.434-.677-.718-1.132-.634L7.611.466C2.835 3.225 2.796 11.481 7.525 19.67c4.729 8.191 11.898 12.287 16.675 9.529l1.623-1.908C26.123 26.939 26.13 26.355 25.839 25.996z" /><path d="M17.933 6.439c4.736 1.27 7.557 6.154 6.287 10.891-.091.339.111.687.45.777.339.09.688-.109.778-.451 1.45-5.412-1.773-10.992-7.186-12.443-.339-.09-.688.109-.777.448C17.395 6.001 17.595 6.349 17.933 6.439z" /><path d="M17.277 8.894c3.382.904 5.396 4.395 4.491 7.777-.092.339.108.687.448.778.339.09.688-.11.777-.451 1.088-4.059-1.329-8.244-5.388-9.333-.34-.092-.687.11-.778.449C16.737 8.456 16.938 8.804 17.277 8.894z" /><path d="M16.62 11.347c2.029.543 3.237 2.638 2.694 4.666-.092.341.109.688.448.778.339.091.688-.109.778-.45.725-2.705-.887-5.497-3.593-6.221-.339-.092-.687.11-.778.448C16.08 10.908 16.28 11.257 16.62 11.347z" /><path d="M15.962 13.801c.676.181 1.08.88.898 1.555-.091.342.11.688.448.778.341.093.688-.108.778-.448.363-1.352-.442-2.748-1.795-3.11-.339-.091-.688.108-.778.448C15.422 13.36 15.623 13.709 15.962 13.801z" /></g></g><g></g><g></g><g></g><g></g><g></g><g></g><g></g><g></g><g></g><g></g><g></g><g></g><g></g><g></g><g></g></symbol><symbol viewBox="0 0 488 488" id="innovation">
<g>
	<g>
		<path d="M414.61,211.775c-3.406-9.558-12.463-15.933-22.61-15.915c-10.137,0.031-19.158,6.438-22.526,16H320v-32h32
			c4.417,0.001,7.999-3.579,8-7.996c0-0.001,0-0.003,0-0.004v-33.474c12.497-4.418,19.047-18.13,14.629-30.628
			c-4.418-12.497-18.13-19.047-30.628-14.629s-19.047,18.13-14.629,30.628c2.416,6.835,7.793,12.212,14.628,14.629v25.475h-24v-16
			c0.001-4.417-3.579-7.999-7.996-8c-0.001,0-0.003,0-0.004,0h-16V98.385c12.497-4.418,19.047-18.13,14.629-30.628
			c-4.418-12.497-18.13-19.047-30.628-14.629c-12.497,4.418-19.047,18.13-14.629,30.628c2.416,6.835,7.793,12.212,14.628,14.629
			v41.475h-32V12.141c0.001-4.417-3.579-7.999-7.996-8c-0.001,0-0.003,0-0.004,0c-98.691,0-176,71.453-176,162.664
			c0,43.328,17.199,100.695,44.891,149.703c4.973,8.797,11.461,18.047,18.328,27.844c14.521,20.699,30.681,43.976,32.438,64.238
			c-6.15,4.347-9.749,11.458-9.61,18.988c0.023,5.409,1.891,10.649,5.295,14.853c-4.735,4.672-7.383,11.058-7.342,17.71
			c0.014,13.249,10.751,23.986,24,24h136c13.339-0.083,24.086-10.963,24.003-24.302c-0.001-0.087-0.002-0.174-0.003-0.261
			c-0.005-6.507-2.664-12.73-7.363-17.232c3.448-4.366,5.321-9.768,5.316-15.331c-0.024-12.671-10.315-22.923-22.986-22.899
			c-0.338,0.001-0.676,0.009-1.014,0.024H248V251.859h16v24c-0.001,4.417,3.579,7.999,7.996,8c0.001,0,0.003,0,0.004,0h24v9.474
			c-12.497,4.418-19.046,18.131-14.627,30.627s18.131,19.046,30.627,14.627c12.497-4.418,19.046-18.131,14.627-30.627
			c-2.416-6.835-7.793-12.211-14.627-14.627v-17.474c0.001-4.417-3.579-7.999-7.996-8c-0.001,0-0.003,0-0.004,0h-24v-16h32
			c4.417,0.001,7.999-3.579,8-7.996c0-0.001,0-0.003,0-0.004v-16h49.475c4.442,12.464,18.146,18.967,30.61,14.525
			C412.548,237.943,419.051,224.239,414.61,211.775z M352,107.859c4.418,0,8,3.582,8,8s-3.582,8-8,8s-8-3.582-8-8
			C344.004,111.443,347.584,107.864,352,107.859z M140.32,335.164c-6.641-9.469-12.91-18.406-17.5-26.531
			C96.809,262.594,80,206.922,80,166.805c0-79.781,66.137-142.797,152-146.492v55.888c-2.124,0.159-4.291,0.352-6.609,0.636
			c-3.396,0.413-6.153,2.941-6.859,6.289l-2.438,11.594c-2.008,0.477-4.01,1.016-6.008,1.617l-7.973-8.891
			c-2.284-2.555-5.942-3.369-9.094-2.023c-8.954,3.861-17.405,8.796-25.168,14.695c-2.733,2.06-3.852,5.631-2.785,8.883
			l3.672,11.188c-1.512,1.422-2.984,2.898-4.41,4.406l-11.176-3.672c-3.251-1.053-6.813,0.062-8.883,2.781
			c-5.907,7.765-10.846,16.22-14.707,25.18c-1.344,3.152-0.53,6.809,2.023,9.094l8.895,7.969c-0.598,1.977-1.133,3.958-1.605,5.945
			l-12.441,2.484c-3.74,0.746-6.433,4.03-6.433,7.844V209.5c0,3.814,2.693,7.098,6.434,7.844l12.441,2.484
			c0.473,1.984,1.008,3.966,1.605,5.945l-8.898,7.969c-2.55,2.287-3.363,5.942-2.023,9.094c3.862,8.959,8.8,17.415,14.707,25.18
			c2.068,2.722,5.632,3.837,8.883,2.781l11.176-3.672c1.43,1.508,2.898,2.984,4.41,4.406l-3.672,11.172
			c-1.066,3.251,0.051,6.82,2.781,8.883c7.763,5.908,16.218,10.848,25.176,14.711c3.152,1.338,6.806,0.525,9.094-2.023l7.973-8.891
			c1.996,0.602,3.999,1.141,6.008,1.617l2.434,11.586c0.703,3.351,3.461,5.883,6.859,6.297c2.321,0.284,4.489,0.477,6.613,0.636
			v88.622h-56.69C172.041,380.564,155.341,356.581,140.32,335.164z M168,195.859c0.051,36.644,27.587,67.419,64,71.528v27.511
			l-1.324-6.297c-0.668-3.189-3.203-5.655-6.41-6.234c-4.742-0.863-9.404-2.12-13.937-3.758c-0.869-0.309-1.785-0.467-2.707-0.469
			c-2.274,0-4.441,0.969-5.957,2.664l-7.523,8.391c-4.169-2.083-8.192-4.446-12.043-7.07l3.473-10.57
			c1.017-3.098,0.054-6.502-2.434-8.609c-3.689-3.123-7.114-6.546-10.238-10.234c-2.113-2.471-5.506-3.427-8.598-2.422
			l-10.566,3.477c-2.626-3.852-4.989-7.877-7.074-12.047l8.398-7.523c2.422-2.175,3.288-5.599,2.191-8.664
			c-1.636-4.534-2.893-9.196-3.758-13.937c-0.584-3.233-3.086-5.78-6.309-6.422L136,202.938v-14.156l11.184-2.234
			c3.222-0.641,5.725-3.189,6.309-6.422c0.865-4.744,2.122-9.409,3.757-13.946c1.099-3.066,0.231-6.491-2.195-8.664L146.664,150
			c2.087-4.168,4.449-8.193,7.07-12.047l10.57,3.477c3.092,1.004,6.484,0.049,8.598-2.422c3.132-3.691,6.559-7.121,10.246-10.258
			c2.478-2.103,3.436-5.498,2.422-8.586l-3.469-10.57c3.851-2.623,7.873-4.985,12.039-7.07l7.523,8.391
			c2.176,2.42,5.598,3.287,8.664,2.195c4.533-1.639,9.195-2.896,13.937-3.758c3.206-0.576,5.741-3.039,6.41-6.227L232,96.828v27.503
			C195.587,128.441,168.051,159.215,168,195.859z M232,140.498V251.22c-30.575-4.377-51.813-32.712-47.436-63.287
			C188.085,163.341,207.407,144.019,232,140.498z M316,460.141c-0.004,4.416-3.584,7.996-8,8H172
			c-4.499-0.076-8.085-3.785-8.009-8.284c0.002-0.093,0.005-0.186,0.009-0.279c0.004-4.416,3.584-7.996,8-8h136
			c4.499,0.076,8.085,3.785,8.009,8.284C316.008,459.955,316.005,460.048,316,460.141z M305.953,420.141
			c4.03-0.372,7.599,2.595,7.97,6.625c0.025,0.27,0.035,0.541,0.03,0.812c-0.004,4.416-3.584,7.996-8,8H174.047
			c-4.499-0.076-8.085-3.784-8.009-8.284c0.002-0.093,0.005-0.186,0.009-0.279c0.171-3.988,3.543-7.082,7.531-6.91
			c0.157,0.007,0.313,0.019,0.469,0.035H305.953z M304,307.859c4.418,0,8,3.582,8,8s-3.582,8-8,8s-8-3.582-8-8
			C296.004,311.443,299.584,307.864,304,307.859z M288,67.859c4.418,0,8,3.582,8,8s-3.582,8-8,8s-8-3.582-8-8
			C280.004,71.443,283.584,67.864,288,67.859z M304,235.859h-56v-80h56V235.859z M392,227.859c-4.418,0-8-3.582-8-8s3.582-8,8-8
			s8,3.582,8,8C399.996,224.276,396.416,227.855,392,227.859z" />
	</g>
</g>
<g>
	<g>
		<path d="M317.152,369.828c-2.821,5.044-5.317,10.263-7.472,15.625l14.875,5.891c1.906-4.73,4.112-9.333,6.605-13.781
			L317.152,369.828z" />
	</g>
</g>
<g>
	<g>
		<path d="M335.148,341.648c-3.144,4.516-6.281,9.109-9.281,13.75l13.43,8.688c2.906-4.484,5.941-8.922,8.984-13.297
			L335.148,341.648z" />
	</g>
</g>
<g>
	<g>
		<path d="M353.348,315.031c-2.699,4.281-5.707,8.711-8.859,13.258l13.141,9.125c3.301-4.75,6.441-9.383,9.258-13.867
			L353.348,315.031z" />
	</g>
</g>
<g>
	<g>
		<path d="M368.359,287.148c-2.293,4.797-4.69,9.539-7.191,14.227l14.109,7.547c2.617-4.898,5.124-9.859,7.52-14.883
			L368.359,287.148z" />
	</g>
</g>
<g>
	<g>
		<path d="M380.855,257.789c-1.859,4.945-3.84,9.898-5.934,14.812l14.727,6.266c2.18-5.133,4.241-10.284,6.184-15.453
			L380.855,257.789z" />
	</g>
</g>
<g>
	<g>
		<path d="M415.992,165.211l-16,0.125l0.008,1.469c0,4.461-0.207,9.203-0.621,14.078l15.945,1.344
			c0.449-5.32,0.676-10.508,0.676-15.422L415.992,165.211z" />
	</g>
</g>
<g>
	<g>
		<path d="M411.918,131.156l-15.578,3.641c1.169,5.001,2.058,10.064,2.664,15.164l15.891-1.891
			C414.216,142.382,413.222,136.735,411.918,131.156z" />
	</g>
</g>
<g>
	<g>
		<path d="M400.418,98.828l-14.383,7c2.249,4.621,4.242,9.363,5.969,14.203l15.07-5.359
			C405.152,109.271,402.93,103.981,400.418,98.828z" />
	</g>
</g>
<g>
	<g>
		<path d="M382.117,69.859l-12.531,9.953c3.202,4.032,6.188,8.23,8.945,12.578l13.523-8.547
			C388.992,79.009,385.675,74.341,382.117,69.859z" />
	</g>
</g>
<g>
	<g>
		<path d="M358.141,45.445l-10.195,12.328c3.977,3.29,7.783,6.782,11.402,10.461l11.406-11.219
			C366.749,52.946,362.539,49.085,358.141,45.445z" />
	</g>
</g>
<g>
	<g>
		<path d="M329.836,26.375l-7.609,14.078c4.57,2.469,9.043,5.172,13.293,8.031l8.93-13.281
			C339.773,32.063,334.859,29.094,329.836,26.375z" />
	</g>
</g>
<g>
	<g>
		<path d="M298.477,13.102l-4.844,15.25c4.984,1.578,9.887,3.391,14.578,5.383l6.258-14.719
			C309.317,16.82,303.934,14.836,298.477,13.102z" />
	</g>
</g>
<g>
	<g>
		<path d="M265.285,5.758l-2.047,15.875c5.16,0.664,10.324,1.563,15.348,2.68l3.461-15.625
			C276.559,7.477,270.918,6.492,265.285,5.758z" />
	</g>
</g>
<g>
	<g>
		<rect x="16" y="435.859" width="16" height="16" />
	</g>
</g>
<g>
	<g>
		<rect x="16" y="467.859" width="16" height="16" />
	</g>
</g>
<g>
	<g>
		<rect x="32" y="451.859" width="16" height="16" />
	</g>
</g>
<g>
	<g>
		<rect y="451.859" width="16" height="16" />
	</g>
</g>
<g>
	<g>
		<rect x="456" y="3.859" width="16" height="16" />
	</g>
</g>
<g>
	<g>
		<rect x="456" y="35.859" width="16" height="16" />
	</g>
</g>
<g>
	<g>
		<rect x="472" y="19.859" width="16" height="16" />
	</g>
</g>
<g>
	<g>
		<rect x="440" y="19.859" width="16" height="16" />
	</g>
</g>
<g>
</g>
<g>
</g>
<g>
</g>
<g>
</g>
<g>
</g>
<g>
</g>
<g>
</g>
<g>
</g>
<g>
</g>
<g>
</g>
<g>
</g>
<g>
</g>
<g>
</g>
<g>
</g>
<g>
</g>
</symbol><symbol viewBox="0 0 24 24" id="linkedin"><path d="m23.994 24v-.001h.006v-8.802c0-4.306-.927-7.623-5.961-7.623-2.42 0-4.044 1.328-4.707 2.587h-.07v-2.185h-4.773v16.023h4.97v-7.934c0-2.089.396-4.109 2.983-4.109 2.549 0 2.587 2.384 2.587 4.243v7.801z" /><path d="m.396 7.977h4.976v16.023h-4.976z" /><path d="m2.882 0c-1.591 0-2.882 1.291-2.882 2.882s1.291 2.909 2.882 2.909 2.882-1.318 2.882-2.909c-.001-1.591-1.292-2.882-2.882-2.882z" /></symbol><symbol viewBox="0 0 64 64" id="robot"><g><path d="m63 41h-19.82l1.512-9.07c1.34-.188 2.504-.9 3.285-1.933.008 0 .015.003.023.003 6.065 0 11-4.935 11-11v-4.026c1.207-.914 2-2.348 2-3.974v-.162l-1.051-3.154-1.897.633.945 2.834c-.08 1.584-1.393 2.849-2.997 2.849s-2.917-1.265-2.996-2.849l.945-2.834-1.897-.633-1.052 3.154v.162c0 1.627.793 3.061 2 3.974v4.137c0 2.696-2.193 4.889-4.888 4.889-.043 0-.087.008-.13.009-.913-1.212-2.351-2.009-3.982-2.009-.526 0-1.044.096-1.549.268l-.308-.411c1.123-.918 1.857-2.296 1.857-3.857v-1h1c1.654 0 3-1.346 3-3v-4c0-1.654-1.346-3-3-3h-1v-1c0-2.757-2.243-5-5-5h-14c-2.757 0-5 2.243-5 5v1h-1c-1.654 0-3 1.346-3 3v4c0 1.654 1.346 3 3 3h1v1c0 1.561.734 2.939 1.858 3.857l-.308.411c-.506-.172-1.024-.268-1.55-.268-2.757 0-5 2.243-5 5 0 .036.01.07.011.105-1.426 1.95-3.011 4.802-3.011 7.895 0 1.774.714 3.913 1.695 6h-12.695v2h13.716c.384.694.783 1.368 1.181 2h-3.897v18h40v-18h-26.513c-.748-.173-1.522-.173-2.27.001-.166-.184-.344-.358-.553-.497-.332-.221-.772-.774-1.247-1.504h41.583zm-18-32c.551 0 1 .449 1 1v4c0 .551-.449 1-1 1h-1v-6zm-26 6c-.551 0-1-.449-1-1v-4c0-.551.449-1 1-1h1v6zm36 4.112v-3.213c.323.066.658.101 1 .101s.677-.035 1-.101v3.101c0 4.657-3.557 8.499-8.096 8.954.06-.309.096-.627.096-.954 0-.359-.042-.708-.114-1.046 3.435-.387 6.114-3.306 6.114-6.842zm-8 7.888c0 1.322-.864 2.433-2.026 2.833.012-.21.026-.419.026-.628 0-1.801-.477-3.587-1.348-5.159.116-.015.231-.046.348-.046 1.654 0 3 1.346 3 3zm-12-24-1.5 2h-3l-1.5-2zm-13 3c0-1.654 1.346-3 3-3h1.5l3 4h5l3-4h1.5c1.654 0 3 1.346 3 3v12c0 1.654-1.346 3-3 3h-14c-1.654 0-3-1.346-3-3zm17 17h1.5l.777 1.037c.012.016.022.033.033.049l.005.007c1.086 1.472 1.685 3.283 1.685 5.112 0 .472-.04.948-.117 1.416l-1.73 10.379h-18.306l-1.73-10.379c-.077-.468-.117-.944-.117-1.416 0-1.587.452-3.16 1.28-4.51l.451-.669.769-1.026h1.5zm-19 1c.117 0 .232.031.349.046-.872 1.572-1.349 3.357-1.349 5.159 0 .206.014.413.026.619-1.175-.407-2.026-1.513-2.026-2.824 0-1.654 1.346-3 3-3zm6.366 23.628 1.336 2.673 1.298-.649v1.348h2v-2h-1.712l-1-2h21.712v14h-36v-14h3.241c.622.87 1.172 1.558 1.577 2h-1.818v2h2v-1.806c.134.136.252.246.334.301.017.011.036.019.053.03-.091 1.388.372 2.806 1.43 3.865l.115.115 2.974 1.487.895-1.789-2.673-1.336c-1.064-1.176-1.03-3 .104-4.134 1.134-1.135 2.958-1.169 4.134-.105zm-5.548-1.31c-.318.318-.565.677-.78 1.05-1.578-1.904-6.038-8.426-6.038-12.368 0-1.958.811-3.855 1.748-5.403.371.606.855 1.134 1.441 1.534-.776 1.396-1.189 2.698-1.189 3.869 0 2.464 3.306 9.217 5.278 10.943-.156.122-.317.232-.46.375zm-2.818-11.318c0-.868.374-1.933 1.049-3.096.084.016.174.014.259.026l1.512 9.07h-.562c-1.181-2.244-2.258-4.903-2.258-6z" /><path d="m21 57h2v2h-2z" /><path d="m17 57h2v2h-2z" /><path d="m45 57h2v2h-2z" /><path d="m41 57h2v2h-2z" /><path d="m33 57h2v2h-2z" /><path d="m29 57h2v2h-2z" /><path d="m37 57h2v2h-2z" /><path d="m25 57h2v2h-2z" /><path d="m17 53h2v2h-2z" /><path d="m33 53h2v2h-2z" /><path d="m25 53h2v2h-2z" /><path d="m29 53h2v2h-2z" /><path d="m45 53h2v2h-2z" /><path d="m41 53h2v2h-2z" /><path d="m37 53h2v2h-2z" /><path d="m33 49h2v2h-2z" /><path d="m37 49h2v2h-2z" /><path d="m45 49h2v2h-2z" /><path d="m41 49h2v2h-2z" /><path d="m37 13c1.654 0 3-1.346 3-3s-1.346-3-3-3-3 1.346-3 3 1.346 3 3 3zm0-4c.551 0 1 .449 1 1s-.449 1-1 1-1-.449-1-1 .449-1 1-1z" /><path d="m27 13c1.654 0 3-1.346 3-3s-1.346-3-3-3-3 1.346-3 3 1.346 3 3 3zm0-4c.551 0 1 .449 1 1s-.449 1-1 1-1-.449-1-1 .449-1 1-1z" /><path d="m35.973 17-7.973-.027v-1.973h-2v1.973c0 1.117.91 2.027 2.027 2.027h7.945c1.118 0 2.028-.91 2.028-2.027v-1.973h-2z" /><path d="m23 32c0 1.654 1.346 3 3 3h12c1.654 0 3-1.346 3-3v-4c0-1.654-1.346-3-3-3h-12c-1.654 0-3 1.346-3 3zm2-4c0-.551.449-1 1-1h12c.551 0 1 .449 1 1v4c0 .551-.449 1-1 1h-12c-.551 0-1-.449-1-1z" /><path d="m29 37h2v2h-2z" /><path d="m25 37h2v2h-2z" /><path d="m37 37h2v2h-2z" /><path d="m33 37h2v2h-2z" /></g></symbol><symbol viewBox="0 0 512 512" id="whatsapp"><path d="m435.921875 74.351562c-48.097656-47.917968-112.082031-74.3242182-180.179687-74.351562-67.945313.0-132.03125 26.382812-180.445313 74.289062C26.796875 122.277344.0625 186.050781.0 253.628906v.078125.046875c.0078125 40.902344 10.753906 82.164063 31.152344 119.828125l-30.453125 138.417969 140.011719-31.847656c35.460937 17.871094 75.027343 27.292968 114.933593 27.308594h.101563c67.933594.0 132.019531-26.386719 180.441406-74.296876 48.542969-48.027343 75.289062-111.71875 75.320312-179.339843.019532-67.144531-26.820312-130.882813-75.585937-179.472657zM255.742188 467.5h-.089844c-35.832032-.015625-71.335938-9.011719-102.667969-26.023438l-6.621094-3.59375-93.101562 21.175782 20.222656-91.90625-3.898437-6.722656c-19.382813-33.425782-29.625-70.324219-29.625-106.71875.074218-117.800782 96.863281-213.75 215.773437-213.75 57.445313.023437 111.421875 22.292968 151.984375 62.699218 41.175781 41.03125 63.84375 94.710938 63.824219 151.152344-.046875 117.828125-96.855469 213.6875-215.800781 213.6875zm0 0" /><path d="m186.152344 141.863281h-11.210938c-3.902344.0-10.238281 1.460938-15.597656 7.292969-5.363281 5.835938-20.476562 19.941406-20.476562 48.628906s20.964843 56.40625 23.886718 60.300782c2.925782 3.890624 40.46875 64.640624 99.929688 88.011718 49.417968 19.421875 59.476562 15.558594 70.199218 14.585938 10.726563-.96875 34.613282-14.101563 39.488282-27.714844s4.875-25.285156 3.414062-27.722656c-1.464844-2.429688-5.367187-3.886719-11.214844-6.800782-5.851562-2.917968-34.523437-17.261718-39.886718-19.210937-5.363282-1.941406-9.261719-2.914063-13.164063 2.925781-3.902343 5.828125-15.390625 19.3125-18.804687 23.203125-3.410156 3.894531-6.824219 4.382813-12.675782 1.464844-5.851562-2.925781-24.5-9.191406-46.847656-29.050781-17.394531-15.457032-29.464844-35.167969-32.878906-41.003906-3.410156-5.832032-.363281-8.988282 2.570312-11.898438 2.628907-2.609375 6.179688-6.179688 9.105469-9.582031 2.921875-3.40625 3.753907-5.835938 5.707031-9.726563 1.949219-3.890625.972657-7.296875-.488281-10.210937-1.464843-2.917969-12.691406-31.75-17.894531-43.28125h.003906c-4.382812-9.710938-8.996094-10.039063-13.164062-10.210938zm0 0" /></symbol></defs><use id="chip-usage" xlink:href="#chip" class="sprite-symbol-usage" /><use id="creativity-usage" xlink:href="#creativity" class="sprite-symbol-usage" /><use id="email-usage" xlink:href="#email" class="sprite-symbol-usage" /><use id="facebook-usage" xlink:href="#facebook" class="sprite-symbol-usage" /><use id="idea-usage" xlink:href="#idea" class="sprite-symbol-usage" /><use id="incoming-call-usage" xlink:href="#incoming-call" class="sprite-symbol-usage" /><use id="innovation-usage" xlink:href="#innovation" class="sprite-symbol-usage" /><use id="linkedin-usage" xlink:href="#linkedin" class="sprite-symbol-usage" /><use id="robot-usage" xlink:href="#robot" class="sprite-symbol-usage" /><use id="whatsapp-usage" xlink:href="#whatsapp" class="sprite-symbol-usage" /></svg>