<svg xmlns="http://www.w3.org/2000/svg" xmlns:xlink="http://www.w3.org/1999/xlink"><defs><style>
    .sprite-symbol-usage {display: none;}
    .sprite-symbol-usage:target {display: inline;}
  </style><symbol viewBox="-32 0 496 496.00935" id="creativity"><path d="m137.972656 98.679688c-15.128906 5.714843-25.96875 20.226562-25.96875 37.328124 0 6.585938 1.753906 12.714844 4.585938 18.203126-12 4.613281-20.585938 16.183593-20.585938 29.796874 0 13.617188 8.585938 25.183594 20.585938 29.800782-2.832032 5.488281-4.585938 11.617187-4.585938 18.199218 0 17.105469 10.839844 31.617188 25.96875 37.328126-1.199218 3.351562-1.96875 6.914062-1.96875 10.671874 0 17.648438 14.351563 32 32 32 3.984375 0 7.761719-.824218 11.28125-2.152343 5.183594 10.699219 16.054688 18.152343 28.71875 18.152343 17.648438 0 32-14.351562 32-32v-224c0-17.644531-14.351562-32-32-32-12.664062 0-23.535156 7.457032-28.71875 18.152344-3.519531-1.328125-7.296875-2.152344-11.28125-2.152344-17.648437 0-32 14.355469-32 32 0 3.761719.769532 7.320313 1.96875 10.671876zm30.03125-26.671876c8.824219 0 16 7.175782 16 16h16c0-7.6875-2.839844-14.664062-7.375-20.183593 1.855469-6.78125 8.007813-11.816407 15.375-11.816407 8.824219 0 16 7.175782 16 16v224c0 8.824219-7.175781 16-16 16-7.367187 0-13.519531-5.03125-15.375-11.816406 4.535156-5.519531 7.375-12.492187 7.375-20.183594h-16c0 8.824219-7.175781 16-16 16-8.824218 0-16-7.175781-16-16 0-8.824218 7.175782-16 16-16v-16c-7.792968 0-14.847656 2.914063-20.398437 7.554688-11.136719-2.074219-19.601563-11.824219-19.601563-23.554688 0-13.230468 10.769532-24 24-24 13.234375 0 24 10.769532 24 24h16c0-22.054687-17.941406-40-40-40-9.039062 0-17.296875 3.128907-24 8.210938v-.210938c-8.824218 0-16-7.175781-16-16 0-8.824218 7.175782-16 16-16v-.207031c6.703125 5.082031 14.960938 8.207031 24 8.207031 22.058594 0 40-17.941406 40-40h-16c0 13.234376-10.765625 24-24 24-13.230468 0-24-10.765624-24-24 0-11.726562 8.464844-21.476562 19.601563-23.550781 5.550781 4.640625 12.605469 7.550781 20.398437 7.550781v-16c-8.824218 0-16-7.175781-16-16 0-8.824218 7.175782-16 16-16zm0 0" /><path d="m328.003906 56.007812c-3.984375 0-7.757812.824219-11.277344 2.152344-5.1875-10.695312-16.058593-18.152344-28.722656-18.152344-17.648437 0-32 14.355469-32 32v224c0 17.648438 14.351563 32 32 32 12.664063 0 23.535156-7.453124 28.722656-18.152343 3.519532 1.328125 7.292969 2.152343 11.277344 2.152343 17.648438 0 32-14.351562 32-32 0-3.757812-.765625-7.320312-1.96875-10.671874 15.128906-5.710938 25.96875-20.222657 25.96875-37.328126 0-6.582031-1.75-12.710937-4.582031-18.199218 12-4.617188 20.582031-16.183594 20.582031-29.800782 0-13.613281-8.582031-25.183593-20.582031-29.796874 2.832031-5.488282 4.582031-11.617188 4.582031-18.203126 0-17.101562-10.839844-31.613281-25.96875-37.328124 1.203125-3.351563 1.96875-6.910157 1.96875-10.671876 0-17.644531-14.351562-32-32-32zm40 80c0 13.234376-10.765625 24-24 24-13.230468 0-24-10.765624-24-24h-16c0 22.058594 17.945313 40 40 40 9.039063 0 17.296875-3.125 24-8.207031v.207031c8.824219 0 16 7.175782 16 16 0 8.824219-7.175781 16-16 16v.210938c-6.703125-5.082031-14.960937-8.210938-24-8.210938-22.054687 0-40 17.945313-40 40h16c0-13.230468 10.769532-24 24-24 13.234375 0 24 10.769532 24 24 0 11.730469-8.464844 21.480469-19.597656 23.554688-5.554688-4.640625-12.609375-7.554688-20.402344-7.554688v16c8.824219 0 16 7.175782 16 16 0 8.824219-7.175781 16-16 16-8.824218 0-16-7.175781-16-16h-16c0 7.691407 2.839844 14.664063 7.375 20.183594-1.855468 6.785156-8.007812 11.816406-15.375 11.816406-8.824218 0-16-7.175781-16-16v-224c0-8.824218 7.175782-16 16-16 7.367188 0 13.519532 5.035157 15.375 11.816407-4.535156 5.519531-7.375 12.496093-7.375 20.183593h16c0-8.824218 7.175782-16 16-16 8.824219 0 16 7.175782 16 16 0 8.824219-7.175781 16-16 16v16c7.792969 0 14.847656-2.910156 20.402344-7.550781 11.132812 2.074219 19.597656 11.824219 19.597656 23.550781zm0 0" /><path d="m373.980469 49.898438c-37.382813-35.136719-86.34375-52.753907-137.726563-49.519532l.992188 15.964844c46.949218-2.917969 91.636718 13.136719 125.78125 45.210938 34.160156 32.101562 52.976562 75.597656 52.976562 122.453124 0 56.464844-28.144531 108.824219-75.289062 140.066407-16.261719 10.78125-28.566406 26.160156-36.148438 43.933593h-113.457031c-7.6875-17.902343-20.039063-33.390624-36.328125-44.269531-48.585938-32.472656-76.503906-86.703125-74.6875-145.089843l-15.992188-.496094c-1.992187 63.9375 28.589844 123.335937 81.792969 158.882812 11.75 7.855469 21.132813 18.550782 27.671875 30.972656h-21.5625v16h27.945313c1.550781 5.183594 2.792969 10.496094 3.421875 16h-15.367188v16h16v24c0 4.425782 3.585938 8 8 8h8c0 26.472657 21.527344 48 48 48s48-21.527343 48-48h8c4.417969 0 8-3.574218 8-8v-24h16v-16h-15.4375c.566406-5.496093 1.695313-10.824218 3.214844-16h28.222656v-16h-21.910156c6.445312-12.285156 15.773438-22.847656 27.464844-30.589843 51.621094-34.234375 82.445312-91.578125 82.445312-153.410157 0-50.574218-21.152344-99.460937-58.023437-134.109374zm-125.976563 430.109374c-17.648437 0-32-14.351562-32-32h64c0 17.648438-14.351562 32-32 32zm48-48h-96v-16h96zm.570313-32h-97.210938c-.535156-5.445312-1.398437-10.796874-2.710937-16h102.410156c-1.273438 5.195313-2.011719 10.570313-2.488281 16zm0 0" /><path d="m56.003906 56.007812c17.648438 0 32 14.355469 32 32 0 4.425782 3.585938 8 8 8 4.417969 0 8-3.574218 8-8 0-17.644531 14.351563-32 32-32 4.417969 0 8-3.574218 8-8 0-4.421874-3.582031-8-8-8-17.648437 0-32-14.351562-32-32 0-4.421874-3.582031-7.9999995-8-7.9999995-4.414062 0-8 3.5781255-8 7.9999995 0 17.648438-14.351562 32-32 32-4.414062 0-8 3.578126-8 8 0 4.425782 3.585938 8 8 8zm40-21.496093c3.554688 5.34375 8.152344 9.945312 13.496094 13.496093-5.34375 3.554688-9.941406 8.152344-13.496094 13.496094-3.550781-5.34375-8.152344-9.941406-13.496094-13.496094 5.34375-3.550781 9.945313-8.152343 13.496094-13.496093zm0 0" /><path d="m88.003906 136.007812c4.417969 0 8-3.574218 8-8 0-4.421874-3.582031-8-8-8-17.648437 0-32-14.351562-32-32 0-4.421874-3.582031-8-8-8-4.414062 0-8 3.578126-8 8 0 17.648438-14.351562 32-32 32-4.414062 0-7.99999975 3.578126-7.99999975 8 0 4.425782 3.58593775 8 7.99999975 8 17.648438 0 32 14.355469 32 32 0 4.425782 3.585938 8 8 8 4.417969 0 8-3.574218 8-8 0-17.644531 14.351563-32 32-32zm-40 5.496094c-3.550781-5.34375-8.152344-9.941406-13.496094-13.496094 5.34375-3.550781 9.9375-8.152343 13.496094-13.496093 3.554688 5.34375 8.152344 9.9375 13.496094 13.496093-5.34375 3.554688-9.941406 8.152344-13.496094 13.496094zm0 0" /></symbol><symbol viewBox="0 0 512 512" id="email"><g><g><g><path d="M17.698 88.688l175.719 142.958c.583.479 1.219.896 1.885 1.229 2.344 1.198 4.823 1.802 7.385 1.802 2.708.0 5.417-.708 9.375-3.104L387.646 88.698c2.604-2.115 4.052-5.323 3.927-8.667s-1.813-6.438-4.563-8.354C379.813 66.656 371.385 64 362.667 64h-320c-8.719.0-17.135 2.646-24.333 7.667-2.75 1.906-4.438 5-4.563 8.354C13.646 83.365 15.094 86.573 17.698 88.688z" /><path d="M256 330.667C256 254.208 318.208 192 394.667 192c5.896.0 10.667-4.771 10.667-10.667V124.24c0-4.115-2.365-7.865-6.083-9.635-3.719-1.729-8.115-1.219-11.313 1.365L224.281 249.146l-1.875 1.24c-12.302 7.552-27.417 7.938-41.302-1.229L17.396 115.958c-3.177-2.594-7.573-3.115-11.313-1.365C2.365 116.365.0 120.115.0 124.229V320c0 23.531 19.135 42.667 42.667 42.667h204.365c3.094.0 6.031-1.344 8.063-3.677 2.021-2.333 2.938-5.438 2.5-8.5C256.51 342.906 256 336.604 256 330.667z" /><path d="M394.667 213.333c-64.698.0-117.333 52.635-117.333 117.333S329.969 448 394.667 448 512 395.365 512 330.667 459.365 213.333 394.667 213.333zM455.542 306.208l-74.667 74.667c-2.083 2.083-4.813 3.125-7.542 3.125-2.729.0-5.458-1.042-7.542-3.125l-32-32c-4.167-4.167-4.167-10.917.0-15.083 4.167-4.167 10.917-4.167 15.083.0l24.458 24.458 67.125-67.125c4.167-4.167 10.917-4.167 15.083.0S459.708 302.042 455.542 306.208z" /></g></g></g><g></g><g></g><g></g><g></g><g></g><g></g><g></g><g></g><g></g><g></g><g></g><g></g><g></g><g></g><g></g></symbol><symbol viewBox="0 0 24 24" id="facebook"><path d="m15.997 3.985h2.191v-3.816c-.378-.052-1.678-.169-3.192-.169-3.159 0-5.323 1.987-5.323 5.639v3.361h-3.486v4.266h3.486v10.734h4.274v-10.733h3.345l.531-4.266h-3.877v-2.939c.001-1.233.333-2.077 2.051-2.077z" /></symbol><symbol viewBox="0 0 480 480" id="idea">
<g>
	<g>
		<path d="M337.678,202.48c-1.522-1.596-3.635-2.494-5.84-2.48h-49.44c-4.411-0.25-8.19,3.123-8.44,7.535
			c-0.06,1.054,0.09,2.109,0.44,3.105c0.807,1.682,1.295,3.5,1.44,5.36c0,8.837-7.163,16-16,16s-16-7.163-16-16
			c0.019-1.835,0.371-3.651,1.04-5.36c1.465-4.168-0.726-8.735-4.895-10.2c-0.996-0.35-2.051-0.5-3.105-0.44h-49.04v-46.24
			c-0.01-4.418-3.601-7.992-8.019-7.981c-1.974,0.005-3.876,0.739-5.341,2.061c-6.539,5.943-16.658,5.46-22.602-1.079
			s-5.46-16.658,1.079-22.602c2.976-2.705,6.861-4.19,10.882-4.159c3.938,0.03,7.726,1.511,10.64,4.16
			c3.28,2.96,8.339,2.701,11.299-0.579c1.322-1.465,2.056-3.367,2.061-5.341V48c0-4.418-3.582-8-8-8
			C91.472,40.18,19.983,111.959,20.163,200.325c0.122,60.176,33.998,115.194,87.675,142.395v58.72
			c-9.566,3.382-15.971,12.414-16,22.56c0.035,5.92,2.258,11.619,6.24,16c-3.982,4.381-6.205,10.08-6.24,16
			c0,13.255,10.745,24,24,24h128c13.255,0,24-10.745,24-24c-0.035-5.92-2.258-11.619-6.24-16c3.982-4.381,6.205-10.08,6.24-16
			c-0.029-10.146-6.434-19.178-16-22.56v-58.72c51.396-25.643,85.017-76.96,88-134.32
			C339.958,206.214,339.177,204.075,337.678,202.48z M243.837,464h-128c-4.418,0-8-3.582-8-8s3.582-8,8-8h128c4.418,0,8,3.582,8,8
			S248.256,464,243.837,464z M243.837,432h-128c-4.418,0-8-3.582-8-8s3.582-8,8-8h128c4.418,0,8,3.582,8,8S248.256,432,243.837,432z
			 M155.837,280h-8c-4.418,0-8-3.582-8-8s3.582-8,8-8s8,3.582,8,8V280z M171.837,400V296h16v104H171.837z M240.478,330.48
			c-2.836,1.312-4.648,4.155-4.64,7.28V400h-32V296h8c13.255,0,24-10.745,24-24s-10.745-24-24-24s-24,10.745-24,24v8h-16v-8
			c0-13.255-10.745-24-24-24s-24,10.745-24,24s10.745,24,24,24h8v104h-32v-62.24c0.008-3.125-1.804-5.968-4.64-7.28
			C47.018,297.089,15.574,211.507,48.965,139.327C71.345,90.952,118.615,58.895,171.837,56v48.8c-2.618-0.628-5.309-0.897-8-0.8
			c-17.673,0-32,14.327-32,32s14.327,32,32,32c2.702,0.019,5.393-0.331,8-1.04V208c0,4.418,3.582,8,8,8h48c0,17.673,14.327,32,32,32
			c17.673,0,32-14.327,32-32h31.04C317.351,265.956,286.095,309.381,240.478,330.48z M203.837,280v-8c0-4.418,3.582-8,8-8
			s8,3.582,8,8s-3.582,8-8,8H203.837z" />
	</g>
</g>
<g>
	<g>
		<path d="M299.837,0c-4.418,0-8,3.582-8,8v57.04c-2.607-0.709-5.298-1.059-8-1.04c-17.673,0-32,14.327-32,32s14.327,32,32,32
			c2.702,0.019,5.393-0.331,8-1.04V168c0,4.418,3.582,8,8,8h48c0,17.673,14.327,32,32,32c17.673,0,32-14.327,32-32h40
			c4.255-0.372,7.628-3.745,8-8c0-2.56,0-5.12,0-8C459.837,71.634,388.203,0,299.837,0z M402.637,160
			c-4.411-0.25-8.19,3.123-8.44,7.535c-0.06,1.054,0.09,2.109,0.44,3.105c0.724,1.698,1.131,3.515,1.2,5.36c0,8.837-7.163,16-16,16
			s-16-7.163-16-16c0.019-1.835,0.371-3.651,1.04-5.36c1.465-4.168-0.726-8.735-4.895-10.2c-0.996-0.35-2.051-0.5-3.105-0.44h-49.04
			v-46.24c-0.01-4.418-3.601-7.992-8.019-7.981c-1.974,0.005-3.876,0.739-5.341,2.061c-6.627,5.845-16.738,5.21-22.583-1.417
			c-5.845-6.627-5.21-16.738,1.417-22.583c6.047-5.333,15.119-5.333,21.166,0c3.277,2.964,8.336,2.711,11.3-0.566
			c1.254-1.386,1.983-3.167,2.06-5.034V16c76.389,4.25,136.118,67.493,136,144H402.637z" />
	</g>
</g>
<g>
</g>
<g>
</g>
<g>
</g>
<g>
</g>
<g>
</g>
<g>
</g>
<g>
</g>
<g>
</g>
<g>
</g>
<g>
</g>
<g>
</g>
<g>
</g>
<g>
</g>
<g>
</g>
<g>
</g>
</symbol><symbol viewBox="0 0 30.055 30.056" id="incoming-call"><g><g><path d="M25.839 25.996l-3.5-4.338c-.292-.36-.908-.648-1.371-.642l-1.478.028c-1.267.729-3.747 1.804-7.177-4.139-3.43-5.941-1.26-7.552.006-8.283l.762-1.266c.239-.398.297-1.076.131-1.509l-2.006-5.2c-.167-.434-.677-.718-1.132-.634L7.611.466C2.835 3.225 2.796 11.481 7.525 19.67c4.729 8.191 11.898 12.287 16.675 9.529l1.623-1.908C26.123 26.939 26.13 26.355 25.839 25.996z" /><path d="M17.933 6.439c4.736 1.27 7.557 6.154 6.287 10.891-.091.339.111.687.45.777.339.09.688-.109.778-.451 1.45-5.412-1.773-10.992-7.186-12.443-.339-.09-.688.109-.777.448C17.395 6.001 17.595 6.349 17.933 6.439z" /><path d="M17.277 8.894c3.382.904 5.396 4.395 4.491 7.777-.092.339.108.687.448.778.339.09.688-.11.777-.451 1.088-4.059-1.329-8.244-5.388-9.333-.34-.092-.687.11-.778.449C16.737 8.456 16.938 8.804 17.277 8.894z" /><path d="M16.62 11.347c2.029.543 3.237 2.638 2.694 4.666-.092.341.109.688.448.778.339.091.688-.109.778-.45.725-2.705-.887-5.497-3.593-6.221-.339-.092-.687.11-.778.448C16.08 10.908 16.28 11.257 16.62 11.347z" /><path d="M15.962 13.801c.676.181 1.08.88.898 1.555-.091.342.11.688.448.778.341.093.688-.108.778-.448.363-1.352-.442-2.748-1.795-3.11-.339-.091-.688.108-.778.448C15.422 13.36 15.623 13.709 15.962 13.801z" /></g></g><g></g><g></g><g></g><g></g><g></g><g></g><g></g><g></g><g></g><g></g><g></g><g></g><g></g><g></g><g></g></symbol><symbol viewBox="0 0 488 488" id="innovation">
<g>
	<g>
		<path d="M414.61,211.775c-3.406-9.558-12.463-15.933-22.61-15.915c-10.137,0.031-19.158,6.438-22.526,16H320v-32h32
			c4.417,0.001,7.999-3.579,8-7.996c0-0.001,0-0.003,0-0.004v-33.474c12.497-4.418,19.047-18.13,14.629-30.628
			c-4.418-12.497-18.13-19.047-30.628-14.629s-19.047,18.13-14.629,30.628c2.416,6.835,7.793,12.212,14.628,14.629v25.475h-24v-16
			c0.001-4.417-3.579-7.999-7.996-8c-0.001,0-0.003,0-0.004,0h-16V98.385c12.497-4.418,19.047-18.13,14.629-30.628
			c-4.418-12.497-18.13-19.047-30.628-14.629c-12.497,4.418-19.047,18.13-14.629,30.628c2.416,6.835,7.793,12.212,14.628,14.629
			v41.475h-32V12.141c0.001-4.417-3.579-7.999-7.996-8c-0.001,0-0.003,0-0.004,0c-98.691,0-176,71.453-176,162.664
			c0,43.328,17.199,100.695,44.891,149.703c4.973,8.797,11.461,18.047,18.328,27.844c14.521,20.699,30.681,43.976,32.438,64.238
			c-6.15,4.347-9.749,11.458-9.61,18.988c0.023,5.409,1.891,10.649,5.295,14.853c-4.735,4.672-7.383,11.058-7.342,17.71
			c0.014,13.249,10.751,23.986,24,24h136c13.339-0.083,24.086-10.963,24.003-24.302c-0.001-0.087-0.002-0.174-0.003-0.261
			c-0.005-6.507-2.664-12.73-7.363-17.232c3.448-4.366,5.321-9.768,5.316-15.331c-0.024-12.671-10.315-22.923-22.986-22.899
			c-0.338,0.001-0.676,0.009-1.014,0.024H248V251.859h16v24c-0.001,4.417,3.579,7.999,7.996,8c0.001,0,0.003,0,0.004,0h24v9.474
			c-12.497,4.418-19.046,18.131-14.627,30.627s18.131,19.046,30.627,14.627c12.497-4.418,19.046-18.131,14.627-30.627
			c-2.416-6.835-7.793-12.211-14.627-14.627v-17.474c0.001-4.417-3.579-7.999-7.996-8c-0.001,0-0.003,0-0.004,0h-24v-16h32
			c4.417,0.001,7.999-3.579,8-7.996c0-0.001,0-0.003,0-0.004v-16h49.475c4.442,12.464,18.146,18.967,30.61,14.525
			C412.548,237.943,419.051,224.239,414.61,211.775z M352,107.859c4.418,0,8,3.582,8,8s-3.582,8-8,8s-8-3.582-8-8
			C344.004,111.443,347.584,107.864,352,107.859z M140.32,335.164c-6.641-9.469-12.91-18.406-17.5-26.531
			C96.809,262.594,80,206.922,80,166.805c0-79.781,66.137-142.797,152-146.492v55.888c-2.124,0.159-4.291,0.352-6.609,0.636
			c-3.396,0.413-6.153,2.941-6.859,6.289l-2.438,11.594c-2.008,0.477-4.01,1.016-6.008,1.617l-7.973-8.891
			c-2.284-2.555-5.942-3.369-9.094-2.023c-8.954,3.861-17.405,8.796-25.168,14.695c-2.733,2.06-3.852,5.631-2.785,8.883
			l3.672,11.188c-1.512,1.422-2.984,2.898-4.41,4.406l-11.176-3.672c-3.251-1.053-6.813,0.062-8.883,2.781
			c-5.907,7.765-10.846,16.22-14.707,25.18c-1.344,3.152-0.53,6.809,2.023,9.094l8.895,7.969c-0.598,1.977-1.133,3.958-1.605,5.945
			l-12.441,2.484c-3.74,0.746-6.433,4.03-6.433,7.844V209.5c0,3.814,2.693,7.098,6.434,7.844l12.441,2.484
			c0.473,1.984,1.008,3.966,1.605,5.945l-8.898,7.969c-2.55,2.287-3.363,5.942-2.023,9.094c3.862,8.959,8.8,17.415,14.707,25.18
			c2.068,2.722,5.632,3.837,8.883,2.781l11.176-3.672c1.43,1.508,2.898,2.984,4.41,4.406l-3.672,11.172
			c-1.066,3.251,0.051,6.82,2.781,8.883c7.763,5.908,16.218,10.848,25.176,14.711c3.152,1.338,6.806,0.525,9.094-2.023l7.973-8.891
			c1.996,0.602,3.999,1.141,6.008,1.617l2.434,11.586c0.703,3.351,3.461,5.883,6.859,6.297c2.321,0.284,4.489,0.477,6.613,0.636
			v88.622h-56.69C172.041,380.564,155.341,356.581,140.32,335.164z M168,195.859c0.051,36.644,27.587,67.419,64,71.528v27.511
			l-1.324-6.297c-0.668-3.189-3.203-5.655-6.41-6.234c-4.742-0.863-9.404-2.12-13.937-3.758c-0.869-0.309-1.785-0.467-2.707-0.469
			c-2.274,0-4.441,0.969-5.957,2.664l-7.523,8.391c-4.169-2.083-8.192-4.446-12.043-7.07l3.473-10.57
			c1.017-3.098,0.054-6.502-2.434-8.609c-3.689-3.123-7.114-6.546-10.238-10.234c-2.113-2.471-5.506-3.427-8.598-2.422
			l-10.566,3.477c-2.626-3.852-4.989-7.877-7.074-12.047l8.398-7.523c2.422-2.175,3.288-5.599,2.191-8.664
			c-1.636-4.534-2.893-9.196-3.758-13.937c-0.584-3.233-3.086-5.78-6.309-6.422L136,202.938v-14.156l11.184-2.234
			c3.222-0.641,5.725-3.189,6.309-6.422c0.865-4.744,2.122-9.409,3.757-13.946c1.099-3.066,0.231-6.491-2.195-8.664L146.664,150
			c2.087-4.168,4.449-8.193,7.07-12.047l10.57,3.477c3.092,1.004,6.484,0.049,8.598-2.422c3.132-3.691,6.559-7.121,10.246-10.258
			c2.478-2.103,3.436-5.498,2.422-8.586l-3.469-10.57c3.851-2.623,7.873-4.985,12.039-7.07l7.523,8.391
			c2.176,2.42,5.598,3.287,8.664,2.195c4.533-1.639,9.195-2.896,13.937-3.758c3.206-0.576,5.741-3.039,6.41-6.227L232,96.828v27.503
			C195.587,128.441,168.051,159.215,168,195.859z M232,140.498V251.22c-30.575-4.377-51.813-32.712-47.436-63.287
			C188.085,163.341,207.407,144.019,232,140.498z M316,460.141c-0.004,4.416-3.584,7.996-8,8H172
			c-4.499-0.076-8.085-3.785-8.009-8.284c0.002-0.093,0.005-0.186,0.009-0.279c0.004-4.416,3.584-7.996,8-8h136
			c4.499,0.076,8.085,3.785,8.009,8.284C316.008,459.955,316.005,460.048,316,460.141z M305.953,420.141
			c4.03-0.372,7.599,2.595,7.97,6.625c0.025,0.27,0.035,0.541,0.03,0.812c-0.004,4.416-3.584,7.996-8,8H174.047
			c-4.499-0.076-8.085-3.784-8.009-8.284c0.002-0.093,0.005-0.186,0.009-0.279c0.171-3.988,3.543-7.082,7.531-6.91
			c0.157,0.007,0.313,0.019,0.469,0.035H305.953z M304,307.859c4.418,0,8,3.582,8,8s-3.582,8-8,8s-8-3.582-8-8
			C296.004,311.443,299.584,307.864,304,307.859z M288,67.859c4.418,0,8,3.582,8,8s-3.582,8-8,8s-8-3.582-8-8
			C280.004,71.443,283.584,67.864,288,67.859z M304,235.859h-56v-80h56V235.859z M392,227.859c-4.418,0-8-3.582-8-8s3.582-8,8-8
			s8,3.582,8,8C399.996,224.276,396.416,227.855,392,227.859z" />
	</g>
</g>
<g>
	<g>
		<path d="M317.152,369.828c-2.821,5.044-5.317,10.263-7.472,15.625l14.875,5.891c1.906-4.73,4.112-9.333,6.605-13.781
			L317.152,369.828z" />
	</g>
</g>
<g>
	<g>
		<path d="M335.148,341.648c-3.144,4.516-6.281,9.109-9.281,13.75l13.43,8.688c2.906-4.484,5.941-8.922,8.984-13.297
			L335.148,341.648z" />
	</g>
</g>
<g>
	<g>
		<path d="M353.348,315.031c-2.699,4.281-5.707,8.711-8.859,13.258l13.141,9.125c3.301-4.75,6.441-9.383,9.258-13.867
			L353.348,315.031z" />
	</g>
</g>
<g>
	<g>
		<path d="M368.359,287.148c-2.293,4.797-4.69,9.539-7.191,14.227l14.109,7.547c2.617-4.898,5.124-9.859,7.52-14.883
			L368.359,287.148z" />
	</g>
</g>
<g>
	<g>
		<path d="M380.855,257.789c-1.859,4.945-3.84,9.898-5.934,14.812l14.727,6.266c2.18-5.133,4.241-10.284,6.184-15.453
			L380.855,257.789z" />
	</g>
</g>
<g>
	<g>
		<path d="M415.992,165.211l-16,0.125l0.008,1.469c0,4.461-0.207,9.203-0.621,14.078l15.945,1.344
			c0.449-5.32,0.676-10.508,0.676-15.422L415.992,165.211z" />
	</g>
</g>
<g>
	<g>
		<path d="M411.918,131.156l-15.578,3.641c1.169,5.001,2.058,10.064,2.664,15.164l15.891-1.891
			C414.216,142.382,413.222,136.735,411.918,131.156z" />
	</g>
</g>
<g>
	<g>
		<path d="M400.418,98.828l-14.383,7c2.249,4.621,4.242,9.363,5.969,14.203l15.07-5.359
			C405.152,109.271,402.93,103.981,400.418,98.828z" />
	</g>
</g>
<g>
	<g>
		<path d="M382.117,69.859l-12.531,9.953c3.202,4.032,6.188,8.23,8.945,12.578l13.523-8.547
			C388.992,79.009,385.675,74.341,382.117,69.859z" />
	</g>
</g>
<g>
	<g>
		<path d="M358.141,45.445l-10.195,12.328c3.977,3.29,7.783,6.782,11.402,10.461l11.406-11.219
			C366.749,52.946,362.539,49.085,358.141,45.445z" />
	</g>
</g>
<g>
	<g>
		<path d="M329.836,26.375l-7.609,14.078c4.57,2.469,9.043,5.172,13.293,8.031l8.93-13.281
			C339.773,32.063,334.859,29.094,329.836,26.375z" />
	</g>
</g>
<g>
	<g>
		<path d="M298.477,13.102l-4.844,15.25c4.984,1.578,9.887,3.391,14.578,5.383l6.258-14.719
			C309.317,16.82,303.934,14.836,298.477,13.102z" />
	</g>
</g>
<g>
	<g>
		<path d="M265.285,5.758l-2.047,15.875c5.16,0.664,10.324,1.563,15.348,2.68l3.461-15.625
			C276.559,7.477,270.918,6.492,265.285,5.758z" />
	</g>
</g>
<g>
	<g>
		<rect x="16" y="435.859" width="16" height="16" />
	</g>
</g>
<g>
	<g>
		<rect x="16" y="467.859" width="16" height="16" />
	</g>
</g>
<g>
	<g>
		<rect x="32" y="451.859" width="16" height="16" />
	</g>
</g>
<g>
	<g>
		<rect y="451.859" width="16" height="16" />
	</g>
</g>
<g>
	<g>
		<rect x="456" y="3.859" width="16" height="16" />
	</g>
</g>
<g>
	<g>
		<rect x="456" y="35.859" width="16" height="16" />
	</g>
</g>
<g>
	<g>
		<rect x="472" y="19.859" width="16" height="16" />
	</g>
</g>
<g>
	<g>
		<rect x="440" y="19.859" width="16" height="16" />
	</g>
</g>
<g>
</g>
<g>
</g>
<g>
</g>
<g>
</g>
<g>
</g>
<g>
</g>
<g>
</g>
<g>
</g>
<g>
</g>
<g>
</g>
<g>
</g>
<g>
</g>
<g>
</g>
<g>
</g>
<g>
</g>
</symbol><symbol viewBox="0 0 24 24" id="linkedin"><path d="m23.994 24v-.001h.006v-8.802c0-4.306-.927-7.623-5.961-7.623-2.42 0-4.044 1.328-4.707 2.587h-.07v-2.185h-4.773v16.023h4.97v-7.934c0-2.089.396-4.109 2.983-4.109 2.549 0 2.587 2.384 2.587 4.243v7.801z" /><path d="m.396 7.977h4.976v16.023h-4.976z" /><path d="m2.882 0c-1.591 0-2.882 1.291-2.882 2.882s1.291 2.909 2.882 2.909 2.882-1.318 2.882-2.909c-.001-1.591-1.292-2.882-2.882-2.882z" /></symbol><symbol viewBox="0 0 512 512" id="whatsapp"><path d="m435.921875 74.351562c-48.097656-47.917968-112.082031-74.3242182-180.179687-74.351562-67.945313.0-132.03125 26.382812-180.445313 74.289062C26.796875 122.277344.0625 186.050781.0 253.628906v.078125.046875c.0078125 40.902344 10.753906 82.164063 31.152344 119.828125l-30.453125 138.417969 140.011719-31.847656c35.460937 17.871094 75.027343 27.292968 114.933593 27.308594h.101563c67.933594.0 132.019531-26.386719 180.441406-74.296876 48.542969-48.027343 75.289062-111.71875 75.320312-179.339843.019532-67.144531-26.820312-130.882813-75.585937-179.472657zM255.742188 467.5h-.089844c-35.832032-.015625-71.335938-9.011719-102.667969-26.023438l-6.621094-3.59375-93.101562 21.175782 20.222656-91.90625-3.898437-6.722656c-19.382813-33.425782-29.625-70.324219-29.625-106.71875.074218-117.800782 96.863281-213.75 215.773437-213.75 57.445313.023437 111.421875 22.292968 151.984375 62.699218 41.175781 41.03125 63.84375 94.710938 63.824219 151.152344-.046875 117.828125-96.855469 213.6875-215.800781 213.6875zm0 0" /><path d="m186.152344 141.863281h-11.210938c-3.902344.0-10.238281 1.460938-15.597656 7.292969-5.363281 5.835938-20.476562 19.941406-20.476562 48.628906s20.964843 56.40625 23.886718 60.300782c2.925782 3.890624 40.46875 64.640624 99.929688 88.011718 49.417968 19.421875 59.476562 15.558594 70.199218 14.585938 10.726563-.96875 34.613282-14.101563 39.488282-27.714844s4.875-25.285156 3.414062-27.722656c-1.464844-2.429688-5.367187-3.886719-11.214844-6.800782-5.851562-2.917968-34.523437-17.261718-39.886718-19.210937-5.363282-1.941406-9.261719-2.914063-13.164063 2.925781-3.902343 5.828125-15.390625 19.3125-18.804687 23.203125-3.410156 3.894531-6.824219 4.382813-12.675782 1.464844-5.851562-2.925781-24.5-9.191406-46.847656-29.050781-17.394531-15.457032-29.464844-35.167969-32.878906-41.003906-3.410156-5.832032-.363281-8.988282 2.570312-11.898438 2.628907-2.609375 6.179688-6.179688 9.105469-9.582031 2.921875-3.40625 3.753907-5.835938 5.707031-9.726563 1.949219-3.890625.972657-7.296875-.488281-10.210937-1.464843-2.917969-12.691406-31.75-17.894531-43.28125h.003906c-4.382812-9.710938-8.996094-10.039063-13.164062-10.210938zm0 0" /></symbol></defs><use id="creativity-usage" xlink:href="#creativity" class="sprite-symbol-usage" /><use id="email-usage" xlink:href="#email" class="sprite-symbol-usage" /><use id="facebook-usage" xlink:href="#facebook" class="sprite-symbol-usage" /><use id="idea-usage" xlink:href="#idea" class="sprite-symbol-usage" /><use id="incoming-call-usage" xlink:href="#incoming-call" class="sprite-symbol-usage" /><use id="innovation-usage" xlink:href="#innovation" class="sprite-symbol-usage" /><use id="linkedin-usage" xlink:href="#linkedin" class="sprite-symbol-usage" /><use id="whatsapp-usage" xlink:href="#whatsapp" class="sprite-symbol-usage" /></svg>