<svg xmlns="http://www.w3.org/2000/svg" xmlns:xlink="http://www.w3.org/1999/xlink"><defs><style>
    .sprite-symbol-usage {display: none;}
    .sprite-symbol-usage:target {display: inline;}
  </style><symbol viewBox="0 0 512 512" id="email"><g><g><g><path d="M17.698 88.688l175.719 142.958c.583.479 1.219.896 1.885 1.229 2.344 1.198 4.823 1.802 7.385 1.802 2.708.0 5.417-.708 9.375-3.104L387.646 88.698c2.604-2.115 4.052-5.323 3.927-8.667s-1.813-6.438-4.563-8.354C379.813 66.656 371.385 64 362.667 64h-320c-8.719.0-17.135 2.646-24.333 7.667-2.75 1.906-4.438 5-4.563 8.354C13.646 83.365 15.094 86.573 17.698 88.688z" /><path d="M256 330.667C256 254.208 318.208 192 394.667 192c5.896.0 10.667-4.771 10.667-10.667V124.24c0-4.115-2.365-7.865-6.083-9.635-3.719-1.729-8.115-1.219-11.313 1.365L224.281 249.146l-1.875 1.24c-12.302 7.552-27.417 7.938-41.302-1.229L17.396 115.958c-3.177-2.594-7.573-3.115-11.313-1.365C2.365 116.365.0 120.115.0 124.229V320c0 23.531 19.135 42.667 42.667 42.667h204.365c3.094.0 6.031-1.344 8.063-3.677 2.021-2.333 2.938-5.438 2.5-8.5C256.51 342.906 256 336.604 256 330.667z" /><path d="M394.667 213.333c-64.698.0-117.333 52.635-117.333 117.333S329.969 448 394.667 448 512 395.365 512 330.667 459.365 213.333 394.667 213.333zM455.542 306.208l-74.667 74.667c-2.083 2.083-4.813 3.125-7.542 3.125-2.729.0-5.458-1.042-7.542-3.125l-32-32c-4.167-4.167-4.167-10.917.0-15.083 4.167-4.167 10.917-4.167 15.083.0l24.458 24.458 67.125-67.125c4.167-4.167 10.917-4.167 15.083.0S459.708 302.042 455.542 306.208z" /></g></g></g><g></g><g></g><g></g><g></g><g></g><g></g><g></g><g></g><g></g><g></g><g></g><g></g><g></g><g></g><g></g></symbol><symbol viewBox="0 0 24 24" id="facebook"><path d="m15.997 3.985h2.191v-3.816c-.378-.052-1.678-.169-3.192-.169-3.159 0-5.323 1.987-5.323 5.639v3.361h-3.486v4.266h3.486v10.734h4.274v-10.733h3.345l.531-4.266h-3.877v-2.939c.001-1.233.333-2.077 2.051-2.077z" /></symbol><symbol viewBox="0 0 30.055 30.056" id="incoming-call"><g><g><path d="M25.839 25.996l-3.5-4.338c-.292-.36-.908-.648-1.371-.642l-1.478.028c-1.267.729-3.747 1.804-7.177-4.139-3.43-5.941-1.26-7.552.006-8.283l.762-1.266c.239-.398.297-1.076.131-1.509l-2.006-5.2c-.167-.434-.677-.718-1.132-.634L7.611.466C2.835 3.225 2.796 11.481 7.525 19.67c4.729 8.191 11.898 12.287 16.675 9.529l1.623-1.908C26.123 26.939 26.13 26.355 25.839 25.996z" /><path d="M17.933 6.439c4.736 1.27 7.557 6.154 6.287 10.891-.091.339.111.687.45.777.339.09.688-.109.778-.451 1.45-5.412-1.773-10.992-7.186-12.443-.339-.09-.688.109-.777.448C17.395 6.001 17.595 6.349 17.933 6.439z" /><path d="M17.277 8.894c3.382.904 5.396 4.395 4.491 7.777-.092.339.108.687.448.778.339.09.688-.11.777-.451 1.088-4.059-1.329-8.244-5.388-9.333-.34-.092-.687.11-.778.449C16.737 8.456 16.938 8.804 17.277 8.894z" /><path d="M16.62 11.347c2.029.543 3.237 2.638 2.694 4.666-.092.341.109.688.448.778.339.091.688-.109.778-.45.725-2.705-.887-5.497-3.593-6.221-.339-.092-.687.11-.778.448C16.08 10.908 16.28 11.257 16.62 11.347z" /><path d="M15.962 13.801c.676.181 1.08.88.898 1.555-.091.342.11.688.448.778.341.093.688-.108.778-.448.363-1.352-.442-2.748-1.795-3.11-.339-.091-.688.108-.778.448C15.422 13.36 15.623 13.709 15.962 13.801z" /></g></g><g></g><g></g><g></g><g></g><g></g><g></g><g></g><g></g><g></g><g></g><g></g><g></g><g></g><g></g><g></g></symbol><symbol viewBox="0 0 24 24" id="linkedin"><path d="m23.994 24v-.001h.006v-8.802c0-4.306-.927-7.623-5.961-7.623-2.42 0-4.044 1.328-4.707 2.587h-.07v-2.185h-4.773v16.023h4.97v-7.934c0-2.089.396-4.109 2.983-4.109 2.549 0 2.587 2.384 2.587 4.243v7.801z" /><path d="m.396 7.977h4.976v16.023h-4.976z" /><path d="m2.882 0c-1.591 0-2.882 1.291-2.882 2.882s1.291 2.909 2.882 2.909 2.882-1.318 2.882-2.909c-.001-1.591-1.292-2.882-2.882-2.882z" /></symbol></defs><use id="email-usage" xlink:href="#email" class="sprite-symbol-usage" /><use id="facebook-usage" xlink:href="#facebook" class="sprite-symbol-usage" /><use id="incoming-call-usage" xlink:href="#incoming-call" class="sprite-symbol-usage" /><use id="linkedin-usage" xlink:href="#linkedin" class="sprite-symbol-usage" /></svg>